<?xml version="1.0" encoding="UTF-8"?>
<svg id="Layer_1" xmlns="http://www.w3.org/2000/svg" viewBox="0 0 342.05 68">
  <defs>
    <style>
      .cls-1 {
        fill: #fff;
      }

      .cls-2 {
        fill: #0f2db3;
      }
    </style>
  </defs>
  <g>
    <path d="M16.05,27.88c-1.51,0-2.69-.31-3.55-.94-.78-.57-1.45-1.51-1.99-2.81L0,.47h5.58l9.14,21.48c.34.73.78,1.09,1.33,1.09.49,0,.91-.36,1.25-1.09L26.52.47h5.51l-10.47,23.67c-.57,1.3-1.22,2.23-1.95,2.77-.86.65-2.04.98-3.55.98Z"/>
    <path d="M34.52,21.17c-.76,0-1.37-.21-1.84-.62-.47-.42-.7-.99-.7-1.72,0-.81.44-1.8,1.33-2.97L46.08.47h5.86l-13.9,16.44h13.47v-7.61h4.73v7.65h2.7v4.18h-2.7v6.29h-4.73v-6.25h-16.99Z"/>
    <path d="M76.74,27.88c-4.87,0-8.42-1.18-10.66-3.55-2.14-2.27-3.2-5.73-3.2-10.39s1.07-8.15,3.2-10.39c2.24-2.37,5.79-3.55,10.66-3.55s8.42,1.19,10.66,3.55c2.13,2.27,3.2,5.73,3.2,10.39s-1.07,8.12-3.2,10.39c-2.24,2.37-5.79,3.55-10.66,3.55ZM76.74,23.39c3.23,0,5.51-.78,6.83-2.34,1.22-1.43,1.84-3.8,1.84-7.11s-.61-5.71-1.84-7.15c-1.33-1.56-3.61-2.34-6.83-2.34s-5.47.78-6.8,2.34c-1.22,1.46-1.84,3.84-1.84,7.15s.61,5.68,1.84,7.11c1.33,1.56,3.59,2.34,6.8,2.34Z"/>
  </g>
  <g>
    <g>
      <g>
        <path d="M142.45,27.9c-1.51,0-2.69-.31-3.55-.94-.78-.57-1.45-1.51-1.99-2.81L126.4.49h5.58l9.14,21.48c.34.73.78,1.09,1.33,1.09.49,0,.91-.36,1.25-1.09L152.91.49h5.51l-10.47,23.67c-.57,1.3-1.22,2.23-1.95,2.77-.86.65-2.04.98-3.55.98Z"/>
        <path d="M160.92,21.19c-.76,0-1.37-.21-1.84-.62-.47-.42-.7-.99-.7-1.72,0-.81.44-1.8,1.33-2.97L172.48.49h5.86l-13.9,16.44h13.47v-7.61h4.73v7.65h2.7v4.18h-2.7v6.29h-4.73v-6.25h-16.99Z"/>
        <path d="M203.14,27.9c-4.87,0-8.42-1.18-10.66-3.55-2.14-2.27-3.2-5.73-3.2-10.39s1.07-8.15,3.2-10.39c2.24-2.37,5.79-3.55,10.66-3.55s8.42,1.19,10.66,3.55c2.13,2.27,3.2,5.73,3.2,10.39s-1.07,8.12-3.2,10.39c-2.24,2.37-5.79,3.55-10.66,3.55ZM203.14,23.41c3.23,0,5.51-.78,6.83-2.34,1.22-1.43,1.84-3.8,1.84-7.11s-.61-5.71-1.84-7.15c-1.33-1.56-3.61-2.34-6.83-2.34s-5.47.78-6.8,2.34c-1.22,1.46-1.84,3.84-1.84,7.15s.61,5.68,1.84,7.11c1.33,1.56,3.59,2.34,6.8,2.34Z"/>
      </g>
      <g>
        <path d="M235.55.49h15.5c2.94,0,5.28.76,7.03,2.26,1.82,1.59,2.73,3.78,2.73,6.56s-.92,4.97-2.77,6.56c-1.75,1.51-4.08,2.26-6.99,2.26h-10.47v9.29h-5.04V.49ZM250.7,13.73c1.56,0,2.77-.38,3.63-1.13.86-.75,1.29-1.85,1.29-3.28-.03-2.92-1.67-4.39-4.92-4.41h-10.11v8.83h10.11Z"/>
        <path d="M265.7,8.42c0-.65.3-.98.9-.98.42,0,.91.25,1.48.74l1.99,1.48c2.94-1.46,6.13-2.2,9.57-2.23v4.65c-3.64.08-6.68.29-9.1.63v14.72h-4.84V8.42Z"/>
        <path d="M292.33,27.9c-3.1,0-5.53-.86-7.3-2.58-1.82-1.77-2.73-4.32-2.73-7.65s.91-5.88,2.73-7.65c1.77-1.72,4.2-2.58,7.3-2.58h2.89c3.12,0,5.57.86,7.34,2.58,1.82,1.77,2.73,4.32,2.73,7.65s-.91,5.88-2.73,7.65c-1.77,1.72-4.22,2.58-7.34,2.58h-2.89ZM294.95,23.8c3.62,0,5.43-2.04,5.43-6.13s-1.81-6.13-5.43-6.13h-2.34c-1.74,0-3.06.47-3.94,1.41-.96,1.02-1.45,2.59-1.45,4.73s.48,3.71,1.45,4.73c.88.94,2.2,1.41,3.94,1.41h2.34Z"/>
      </g>
    </g>
    <g>
      <g>
        <path class="cls-2" d="M342.04,68c-4.31-1.94-9.09-3.02-14.12-3.02s-9.82,1.08-14.13,3.02v-28.25h28.25v28.25Z"/>
        <g>
          <path class="cls-1" d="M317.18,48.3c-1.33,0-1.44,1.35-1.44,1.35h-.63v-1.99h4.94s.04,1.54-1.42,3.17c0,0-1.39,1.62-1.43,2.32h.8c1.15,0,1.27-1.34,1.27-1.34h.66v2h-5.05s-.19-1.51,1.57-3.35c0,0,1.08-1.2,1.33-2.16h-.6Z"/>
          <path class="cls-1" d="M329.77,53.8v-.65h-.15c-.27,0-.49-.22-.49-.49v-3.85c0-.27.22-.49.49-.49h.15v-.65h-3.28v.65h.15c.28,0,.5.22.5.49v3.85c0,.27-.22.49-.5.49h-.15v.65h3.28Z"/>
          <path class="cls-1" d="M325.81,53.81v-2h-.66s-.12,1.34-1.27,1.34h-.66v-2.1h.23c.28,0,.5.22.5.5v.25h.65v-2.15h-.65v.25c0,.28-.22.5-.5.5h-.23v-2.1h.66c1.15,0,1.27,1.34,1.27,1.34h.66v-2h-5.21v.66h.15c.27,0,.49.22.49.49v3.85c0,.27-.22.49-.49.49h-.15v.65h5.21Z"/>
          <path class="cls-1" d="M333.21,48.3c1.33,0,1.43,1.35,1.43,1.35h.64v-1.99h-4.73s-.75.98,1.21,3.17c0,0,1.39,1.62,1.42,2.32h-.8c-1.15,0-1.27-1.34-1.27-1.34h-.66v2h4.76s.87-.93-1.28-3.35c0,0-1.12-1.16-1.33-2.16h.6Z"/>
          <path class="cls-1" d="M338.74,48.3c1.32,0,1.43,1.35,1.43,1.35h.63v-1.99h-4.72s-.75.98,1.21,3.17c0,0,1.39,1.62,1.42,2.32h-.8c-1.15,0-1.27-1.34-1.27-1.34h-.66v2h4.76s.86-.93-1.28-3.35c0,0-1.12-1.16-1.33-2.16h.6Z"/>
        </g>
      </g>
      <g>
        <path d="M176.79,49.59c0-3.25,1.76-4.35,4.98-4.35,1.35,0,2.3.16,2.84.27v1.41c-.56-.13-1.6-.29-2.76-.29-2.37,0-3.44.69-3.44,2.95s1.07,2.94,3.46,2.94c1.2,0,2.25-.16,2.84-.3v1.41c-.55.15-1.52.29-2.98.29-3.22,0-4.96-1.15-4.96-4.33"/>
        <path d="M186.09,50.74c0-2.11,1.24-3.18,3.12-3.18h.9c1.89,0,3.13,1.07,3.13,3.18s-1.24,3.18-3.13,3.18h-.9c-1.88,0-3.12-1.08-3.12-3.18M191.72,50.74c0-1.38-.64-1.91-1.69-1.91h-.73c-1.04,0-1.68.52-1.68,1.91s.63,1.91,1.68,1.91h.73c1.04,0,1.69-.52,1.69-1.91"/>
        <rect x="194.53" y="49.53" width="4.45" height="1.31"/>
        <path d="M200.26,50.71c0-2.15,1.19-3.16,3.24-3.16,2.26,0,3.08,1.19,3.08,2.64,0,.43-.04.78-.07,1h-4.8c.12,1.12.68,1.52,2.31,1.52.96,0,1.77-.22,2.19-.34v1.24c-.4.16-1.25.32-2.32.32-2.65,0-3.63-1.01-3.63-3.21M203.52,48.73c-1.14,0-1.68.43-1.8,1.45h3.4c.04-.97-.43-1.45-1.6-1.45"/>
        <path d="M208.55,47.55c.14,0,.29.09.46.23l.6.44c.66-.36,1.38-.67,2.48-.67,1.71,0,2.51.8,2.51,2.23v3.98h-1.49v-3.62c0-.87-.38-1.26-1.52-1.26-.68,0-1.37.12-1.81.27v4.62h-1.51v-5.92c0-.19.09-.3.28-.3"/>
        <path d="M216.89,56.38v-1.29c.53.16,1.46.35,2.43.34,1.46,0,2.16-.41,2.16-1.49v-.69c-.5.33-1.17.62-2.23.62-1.81,0-3.06-.89-3.06-3.16s1.4-3.16,3.21-3.16c1.07,0,1.72.31,2.3.64l.55-.43c.18-.15.3-.22.46-.22.19,0,.28.11.28.3v6.12c0,1.99-1.48,2.73-3.58,2.73-1.19,0-2.02-.17-2.5-.33M221.48,52.23v-3.02c-.3-.15-1.02-.35-1.82-.35-1.18,0-1.93.45-1.93,1.86s.69,1.86,1.9,1.86c.8,0,1.44-.15,1.86-.34"/>
        <path d="M224.83,45.5l.69-.64c.15-.15.3-.15.45,0l.69.64c.16.16.16.31,0,.45l-.69.63c-.15.15-.29.15-.45,0l-.68-.63c-.15-.13-.16-.29-.01-.45M226.49,53.77h-1.49v-6.07h1.49v6.07Z"/>
        <path d="M228.8,47.55c.14,0,.29.09.46.23l.59.44c.66-.36,1.38-.67,2.48-.67,1.71,0,2.51.8,2.51,2.23v3.98h-1.49v-3.62c0-.87-.38-1.26-1.52-1.26-.68,0-1.37.12-1.81.27v4.62h-1.51v-5.92c0-.19.09-.3.28-.3"/>
        <path d="M236.43,50.71c0-2.15,1.19-3.16,3.24-3.16,2.26,0,3.08,1.19,3.08,2.64,0,.43-.04.78-.07,1h-4.8c.12,1.12.68,1.52,2.31,1.52.96,0,1.77-.22,2.19-.34v1.24c-.4.16-1.25.32-2.32.32-2.65,0-3.63-1.01-3.63-3.21M239.69,48.73c-1.14,0-1.68.43-1.8,1.45h3.4c.04-.97-.43-1.45-1.6-1.45"/>
        <path d="M244.08,50.71c0-2.15,1.19-3.16,3.24-3.16,2.26,0,3.08,1.19,3.08,2.64,0,.43-.04.78-.07,1h-4.8c.12,1.12.68,1.52,2.31,1.52.96,0,1.77-.22,2.19-.34v1.24c-.4.16-1.25.32-2.32.32-2.65,0-3.63-1.01-3.63-3.21M247.33,48.73c-1.14,0-1.68.43-1.8,1.45h3.4c.04-.97-.43-1.45-1.6-1.45"/>
        <path d="M252.37,47.55c.14,0,.29.09.46.23l.62.46c.98-.49,1.82-.68,2.98-.69v1.45c-.98.02-2.02.09-2.83.19v4.58h-1.51v-5.92c0-.19.09-.3.28-.3"/>
        <path d="M257.25,50.71c0-2.15,1.19-3.16,3.24-3.16,2.26,0,3.08,1.19,3.08,2.64,0,.43-.04.78-.07,1h-4.8c.12,1.12.68,1.52,2.31,1.52.96,0,1.77-.22,2.19-.34v1.24c-.4.16-1.25.32-2.32.32-2.65,0-3.63-1.01-3.63-3.21M260.51,48.73c-1.14,0-1.68.43-1.8,1.45h3.4c.04-.97-.43-1.45-1.6-1.45"/>
        <path d="M264.9,50.74c0-2.33,1.4-3.18,3.21-3.18.95,0,1.57.24,2.09.51v-3.16h1.49v8.87h-1.29l-.13-.52c-.52.35-1.2.67-2.31.67-1.81,0-3.06-.9-3.06-3.18M270.19,52.3v-3.1c-.3-.16-1.02-.36-1.82-.36-1.18,0-1.93.41-1.93,1.89s.69,1.9,1.9,1.9c.8,0,1.44-.17,1.86-.33"/>
        <path d="M278.64,52.96l-1.82-5.26h1.54l1.54,4.86,1.51-3.88c.18-.54.49-.75.97-.75s.8.24.97.75l1.47,3.86,1.56-4.85h1.52l-1.82,5.26c-.23.67-.55.96-1.22.96-.72,0-1.02-.32-1.26-.96l-1.24-3.28-1.23,3.28c-.26.64-.56.96-1.26.96s-1.01-.32-1.23-.96"/>
        <path d="M289.08,45.5l.69-.64c.15-.15.3-.15.45,0l.69.64c.16.16.16.31,0,.45l-.69.63c-.15.15-.29.15-.45,0l-.68-.63c-.15-.13-.16-.29-.01-.45M290.75,53.77h-1.49v-6.07h1.49v6.07Z"/>
        <path d="M293.4,51.83v-2.88h-1.31v-1.25h1.31v-1.77h1.49v1.77h2.48v1.25h-2.48v2.55c0,.79.32,1.13,1.38,1.13.46,0,.94-.11,1.15-.17v1.26c-.28.09-.83.19-1.46.19-1.77,0-2.58-.67-2.58-2.09"/>
        <path d="M300.42,44.91v3.23c.61-.33,1.31-.58,2.31-.58,1.71,0,2.51.8,2.51,2.23v3.98h-1.49v-3.62c0-.87-.38-1.26-1.52-1.26-.68,0-1.37.12-1.81.27v4.62h-1.51v-8.87h1.51Z"/>
      </g>
    </g>
  </g>
  <path d="M110.1,17.81c-.26,0-.51-.12-.74-.35l-2.5-2.58c-.23-.23-.35-.47-.35-.7s.12-.47.35-.7l2.5-2.54c.23-.23.48-.35.74-.35.24,0,.47.12.7.35l2.58,2.54c.23.23.35.47.35.7s-.12.47-.35.7l-2.58,2.58c-.23.23-.47.35-.7.35Z"/>
</svg>