<?xml version="1.0" encoding="UTF-8"?>
<svg id="_图层_1" data-name="图层 1" xmlns="http://www.w3.org/2000/svg" viewBox="0 0 212.48 32">
  <defs>
    <style>
      .cls-1 {
        fill: #fff;
        stroke-width: 0px;
      }
    </style>
  </defs>
  <g>
    <g>
      <path class="cls-1" d="M173.82,23.17c1.11,0,1.99-.32,2.65-.97.7-.68,1.05-1.62,1.05-2.81,0-1.12-.29-2.01-.88-2.66-.59-.65-1.41-.97-2.47-.97-1.34,0-2.43.43-3.27,1.29l-2.79-.42.8-10.78h10.92v3.05h-7.75l-.43,5.07c.91-.65,2.07-.97,3.46-.97,1.79,0,3.24.61,4.37,1.84,1.11,1.21,1.66,2.76,1.66,4.65,0,2.02-.69,3.66-2.07,4.94-1.38,1.28-3.14,1.92-5.28,1.92-2.63,0-4.75-.93-6.36-2.79l2.12-2.37c1.22,1.31,2.64,1.97,4.26,1.97Z"/>
      <path class="cls-1" d="M183.73,16.07c-.02-3.16,1.02-5.72,3.13-7.7,2.09-1.96,4.78-2.93,8.07-2.89,2,0,3.81.45,5.44,1.34l-.97,3c-1.31-.72-2.74-1.08-4.28-1.08-2.14,0-3.89.62-5.26,1.87-1.44,1.32-2.16,3.09-2.16,5.31,0,2.42.77,4.28,2.31,5.57,1.33,1.12,3,1.68,5,1.68.96,0,1.85-.11,2.66-.34v-5.02h-4.26v-2.92h7.63v10.1c-1.58.91-3.71,1.37-6.39,1.37-3.07,0-5.59-.83-7.57-2.5-2.21-1.86-3.32-4.45-3.34-7.78Z"/>
    </g>
    <path class="cls-1" d="M196.41,2.32c7.49,0,13.59,6.1,13.59,13.59s-6.1,13.59-13.59,13.59h-24.35c-7.49,0-13.59-6.1-13.59-13.59s6.1-13.59,13.59-13.59h24.35M196.41-.06h-24.35c-8.82,0-15.97,7.15-15.97,15.97s7.15,15.97,15.97,15.97h24.35c8.82,0,15.97-7.15,15.97-15.97S205.23-.06,196.41-.06h0Z"/>
  </g>
  <g>
    <path class="cls-1" d="M14.82,19.69c-1.2-.51-2.23-1.42-3.09-2.73L-.1.46h6.68l9.68,13.67c.48.6.99.9,1.52.9s1.02-.3,1.43-.9L28.9.46h6.68l-11.83,16.49c-.87,1.34-1.91,2.27-3.14,2.78v11.65h-5.78v-11.7Z"/>
    <path class="cls-1" d="M50.84,31.92c-4.9,0-9.07-.45-12.5-1.35v-5.02c3.76.93,7.89,1.39,12.37,1.39,3.59,0,6.11-.39,7.57-1.17,1.43-.75,2.15-2.05,2.15-3.9,0-1.64-.58-2.79-1.75-3.45-1.05-.6-2.85-.9-5.42-.9h-7.57v-3.81l11.38-8.34h-18.2V.46h24.16c1.67.09,2.51.84,2.51,2.24,0,1.14-.6,2.14-1.79,3l-10.22,7.62h1.93c7.29.09,10.94,2.96,10.94,8.61,0,3.41-1.27,5.93-3.81,7.57-2.51,1.61-6.42,2.42-11.74,2.42Z"/>
    <path class="cls-1" d="M86.92,31.92c-5.59,0-9.67-1.36-12.23-4.08-2.45-2.6-3.67-6.57-3.67-11.92s1.22-9.35,3.67-11.92C77.26,1.28,81.33-.08,86.92-.08s9.67,1.36,12.23,4.08c2.45,2.6,3.67,6.57,3.67,11.92s-1.23,9.32-3.67,11.92c-2.57,2.72-6.65,4.08-12.23,4.08ZM86.92,26.77c3.7,0,6.32-.9,7.84-2.69,1.4-1.64,2.11-4.36,2.11-8.16s-.7-6.56-2.11-8.2c-1.52-1.79-4.14-2.69-7.84-2.69s-6.27.9-7.8,2.69c-1.4,1.67-2.11,4.41-2.11,8.2s.7,6.51,2.11,8.16c1.52,1.79,4.12,2.69,7.8,2.69Z"/>
    <path class="cls-1" d="M123.89,31.92c-5.59,0-9.67-1.36-12.23-4.08-2.45-2.6-3.67-6.57-3.67-11.92s1.22-9.35,3.67-11.92C114.23,1.28,118.31-.08,123.89-.08s9.67,1.36,12.23,4.08c2.45,2.6,3.67,6.57,3.67,11.92s-1.23,9.32-3.67,11.92c-2.57,2.72-6.65,4.08-12.23,4.08ZM123.89,26.77c3.7,0,6.32-.9,7.84-2.69,1.4-1.64,2.11-4.36,2.11-8.16s-.7-6.56-2.11-8.2c-1.52-1.79-4.14-2.69-7.84-2.69s-6.27.9-7.8,2.69c-1.4,1.67-2.11,4.41-2.11,8.2s.7,6.51,2.11,8.16c1.52,1.79,4.12,2.69,7.8,2.69Z"/>
  </g>
</svg>