<?xml version="1.0" encoding="UTF-8"?>
<svg id="Layer_1" data-name="Layer 1" xmlns="http://www.w3.org/2000/svg" viewBox="0 0 399.93 80">
  <defs>
    <style>
      .cls-1 {
        fill: #0f2db3;
      }

      .cls-1, .cls-2 {
        stroke-width: 0px;
      }

      .cls-2 {
        fill: #fff;
      }
    </style>
  </defs>
  <g>
    <g>
      <path class="cls-1" d="M399.92,80c-5.27-2.38-11.12-3.7-17.27-3.7s-12.01,1.32-17.28,3.7v-34.55h34.55v34.55Z"/>
      <g>
        <path class="cls-2" d="M369.51,55.91c-1.62,0-1.76,1.64-1.76,1.64h-.78v-2.44h6.04s.05,1.88-1.74,3.88c0,0-1.7,1.98-1.75,2.84h.98c1.41,0,1.55-1.64,1.55-1.64h.81v2.44h-6.18s-.23-1.85,1.92-4.1c0,0,1.32-1.47,1.62-2.64h-.73Z"/>
        <path class="cls-2" d="M384.91,62.64v-.8h-.18c-.33,0-.6-.27-.6-.6v-4.71c0-.33.27-.6.6-.6h.18v-.8h-4.01v.8h.18c.34,0,.61.27.61.6v4.71c0,.33-.27.6-.61.6h-.18v.8h4.01Z"/>
        <path class="cls-2" d="M380.08,62.64v-2.44h-.81s-.15,1.64-1.56,1.64h-.81v-2.56h.29c.34,0,.61.27.61.61v.3h.8v-2.63h-.8v.3c0,.34-.27.61-.61.61h-.29v-2.56h.81c1.41,0,1.56,1.64,1.56,1.64h.81v-2.44h-6.37v.8h.18c.33,0,.6.27.6.6v4.71c0,.33-.27.6-.6.6h-.18v.8h6.37Z"/>
        <path class="cls-2" d="M389.12,55.91c1.62,0,1.75,1.64,1.75,1.64h.78v-2.44h-5.78s-.91,1.2,1.47,3.88c0,0,1.7,1.98,1.74,2.84h-.98c-1.41,0-1.56-1.64-1.56-1.64h-.81v2.44h5.82s1.06-1.14-1.56-4.1c0,0-1.37-1.41-1.62-2.64h.74Z"/>
        <path class="cls-2" d="M395.88,55.91c1.62,0,1.75,1.64,1.75,1.64h.78v-2.44h-5.77s-.91,1.2,1.47,3.88c0,0,1.7,1.98,1.74,2.84h-.98c-1.41,0-1.56-1.64-1.56-1.64h-.81v2.44h5.82s1.06-1.14-1.56-4.1c0,0-1.37-1.41-1.62-2.64h.74Z"/>
      </g>
    </g>
    <g>
      <path class="cls-2" d="M189.86,60.92c-.6.12-1.24.18-1.92.18-.86,0-1.65-.12-2.36-.37-.71-.25-1.29-.64-1.72-1.18-.43-.54-.65-1.22-.65-2.05s.21-1.46.62-2c.42-.54.98-.94,1.69-1.21.71-.26,1.5-.4,2.36-.4.67,0,1.3.06,1.9.18.6.12,1.14.3,1.65.54l.78-1.54c-.6-.29-1.27-.51-2-.66-.73-.15-1.48-.23-2.26-.23-1.23,0-2.36.2-3.4.59-1.04.4-1.87,1-2.5,1.8-.63.81-.94,1.79-.94,2.95s.32,2.17.95,2.96c.63.8,1.47,1.39,2.5,1.77,1.04.39,2.17.58,3.4.58.88,0,1.7-.08,2.45-.24.75-.16,1.42-.4,2.01-.71l-.79-1.54c-.56.25-1.14.44-1.74.57Z"/>
      <path class="cls-2" d="M201.11,55.49c-.78-.32-1.7-.47-2.78-.47s-2.02.16-2.79.47c-.77.32-1.37.77-1.79,1.35-.42.58-.62,1.28-.62,2.09s.21,1.5.62,2.09c.41.59,1.01,1.04,1.79,1.36.78.32,1.71.47,2.8.47s1.99-.16,2.77-.47c.77-.32,1.37-.77,1.78-1.36.41-.59.62-1.28.62-2.09s-.2-1.51-.61-2.09c-.41-.58-1-1.03-1.77-1.35ZM201.06,60.18c-.24.35-.59.63-1.06.82-.46.19-1.02.29-1.67.29s-1.23-.1-1.7-.29c-.47-.19-.83-.47-1.07-.82-.24-.35-.36-.77-.36-1.25s.12-.91.36-1.27c.24-.35.6-.63,1.07-.82.47-.19,1.04-.29,1.7-.29s1.21.1,1.67.29c.46.19.82.47,1.06.82.24.35.36.78.36,1.27s-.12.9-.36,1.25Z"/>
      <rect class="cls-2" x="205.22" y="57.7" width="4.58" height="1.64"/>
      <path class="cls-2" d="M218.79,55.45c-.67-.29-1.47-.44-2.38-.44-.98,0-1.84.16-2.58.49-.74.33-1.3.78-1.7,1.37-.4.59-.6,1.27-.6,2.06,0,.85.2,1.56.6,2.15.4.58.99,1.02,1.77,1.32.78.3,1.72.44,2.84.44.73,0,1.43-.06,2.11-.18.68-.12,1.3-.29,1.88-.52l-.44-1.39c-.6.17-1.17.3-1.72.39-.55.09-1.11.13-1.69.13-.78,0-1.41-.08-1.89-.23-.49-.16-.85-.41-1.1-.75-.15-.21-.24-.48-.3-.78h7.22c.05-.22.07-.45.07-.69,0-.82-.18-1.52-.54-2.08-.36-.57-.87-1-1.55-1.29ZM213.59,58.16c.05-.22.13-.42.24-.6.22-.36.54-.63.96-.81s.94-.26,1.57-.26c.55,0,1,.07,1.37.22.36.15.64.34.82.59.18.25.27.54.28.86h-5.23Z"/>
      <path class="cls-2" d="M229.99,55.39c-.61-.25-1.31-.38-2.08-.38s-1.51.14-2.16.42c-.62.27-1.1.66-1.44,1.15l-.04-1.4h-1.92v7.49h2.03v-3.99c0-.4.13-.77.4-1.09.26-.32.63-.57,1.09-.76.46-.18.97-.28,1.52-.28.8,0,1.42.19,1.88.58.46.39.69.96.69,1.71v3.82h2.03v-4.24c0-.75-.18-1.38-.54-1.89-.36-.51-.85-.89-1.46-1.15Z"/>
      <path class="cls-2" d="M241.44,56.39c-.18-.23-.4-.44-.67-.62-.38-.25-.82-.44-1.3-.56-.48-.12-.98-.18-1.5-.18-.79,0-1.52.13-2.22.4-.69.27-1.26.69-1.7,1.25-.44.57-.66,1.26-.66,2.08s.21,1.5.62,2.07c.41.57.96,1,1.65,1.29.69.29,1.44.43,2.28.43.57,0,1.1-.07,1.6-.21.5-.14.93-.34,1.3-.59.21-.15.39-.32.55-.5v.47c0,.57-.15,1.05-.46,1.43-.31.38-.72.66-1.23.84-.51.18-1.07.27-1.67.27-.71,0-1.37-.08-1.99-.24-.61-.16-1.16-.41-1.65-.75l-.58,1.38c.47.36,1.06.63,1.77.81.71.18,1.46.28,2.24.28.96,0,1.85-.15,2.67-.44.82-.29,1.48-.76,1.99-1.41.51-.65.77-1.47.77-2.48v-6.23h-1.74l-.06,1.21ZM241.08,59.99c-.23.34-.57.61-1.03.81-.46.2-1.02.3-1.68.3-.62,0-1.16-.09-1.6-.28-.44-.18-.77-.45-1-.8-.23-.35-.34-.76-.34-1.24s.12-.91.36-1.25c.24-.34.58-.61,1.01-.78.43-.18.95-.27,1.55-.27.65,0,1.21.1,1.67.29.46.19.81.45,1.04.78.23.33.35.71.35,1.13v.17c0,.42-.11.81-.34,1.15Z"/>
      <rect class="cls-2" x="245.22" y="55.18" width="2.03" height="7.49"/>
      <path class="cls-2" d="M246.19,51.93c-.33,0-.61.11-.84.34-.23.23-.34.51-.34.85s.11.62.34.84c.23.22.51.33.84.33s.63-.11.87-.33c.24-.22.35-.5.35-.84s-.12-.62-.35-.85c-.24-.23-.53-.34-.87-.34Z"/>
      <path class="cls-2" d="M256.78,55.39c-.61-.25-1.31-.38-2.09-.38s-1.51.14-2.16.42c-.62.27-1.1.66-1.44,1.15l-.04-1.4h-1.92v7.49h2.03v-3.99c0-.4.13-.77.4-1.09.26-.32.63-.57,1.09-.76.46-.18.97-.28,1.52-.28.8,0,1.42.19,1.88.58.46.39.69.96.69,1.71v3.82h2.03v-4.24c0-.75-.18-1.38-.54-1.89-.36-.51-.85-.89-1.46-1.15Z"/>
      <path class="cls-2" d="M267.47,55.45c-.67-.29-1.46-.44-2.38-.44-.98,0-1.84.16-2.58.49-.74.33-1.3.78-1.7,1.37-.4.59-.6,1.27-.6,2.06,0,.85.2,1.56.6,2.15.4.58.99,1.02,1.77,1.32.78.3,1.72.44,2.84.44.73,0,1.43-.06,2.11-.18.68-.12,1.3-.29,1.88-.52l-.44-1.39c-.6.17-1.17.3-1.72.39-.55.09-1.11.13-1.69.13-.78,0-1.41-.08-1.89-.23-.49-.16-.85-.41-1.1-.75-.15-.21-.24-.48-.3-.78h7.22c.05-.22.07-.45.07-.69,0-.82-.18-1.52-.54-2.08-.36-.57-.88-1-1.55-1.29ZM262.28,58.16c.05-.22.13-.42.24-.6.22-.36.54-.63.96-.81.42-.17.94-.26,1.57-.26.55,0,1,.07,1.37.22.36.15.64.34.82.59.18.25.27.54.28.86h-5.23Z"/>
      <path class="cls-2" d="M277.97,55.45c-.67-.29-1.46-.44-2.38-.44-.98,0-1.84.16-2.58.49-.74.33-1.3.78-1.7,1.37-.4.59-.6,1.27-.6,2.06,0,.85.2,1.56.6,2.15.4.58.99,1.02,1.77,1.32.78.3,1.72.44,2.84.44.73,0,1.43-.06,2.11-.18.68-.12,1.3-.29,1.88-.52l-.44-1.39c-.6.17-1.17.3-1.72.39-.55.09-1.11.13-1.69.13-.78,0-1.41-.08-1.89-.23-.49-.16-.85-.41-1.1-.75-.15-.21-.24-.48-.3-.78h7.22c.05-.22.07-.45.07-.69,0-.82-.18-1.52-.54-2.08-.36-.57-.87-1-1.55-1.29ZM272.78,58.16c.05-.22.13-.42.24-.6.22-.36.54-.63.96-.81.42-.17.94-.26,1.57-.26.55,0,1,.07,1.37.22.36.15.64.34.82.59.18.25.27.54.28.86h-5.23Z"/>
      <path class="cls-2" d="M284.64,55.52c-.54.31-.91.77-1.14,1.35l-.06-1.69h-1.9v7.49h2.03v-3.63c0-.53.13-.96.38-1.3.25-.34.57-.58.96-.74.39-.15.83-.23,1.31-.23s.97.07,1.4.2l.33-1.75c-.35-.14-.8-.21-1.35-.21-.72,0-1.38.17-1.97.51Z"/>
      <path class="cls-2" d="M295.73,55.45c-.67-.29-1.46-.44-2.38-.44-.98,0-1.84.16-2.58.49-.74.33-1.3.78-1.7,1.37-.4.59-.6,1.27-.6,2.06,0,.85.2,1.56.6,2.15.4.58.99,1.02,1.76,1.32.78.3,1.72.44,2.84.44.73,0,1.43-.06,2.11-.18.68-.12,1.3-.29,1.88-.52l-.44-1.39c-.6.17-1.17.3-1.72.39-.55.09-1.11.13-1.69.13-.78,0-1.41-.08-1.89-.23-.49-.16-.85-.41-1.1-.75-.15-.21-.24-.48-.3-.78h7.22c.05-.22.07-.45.07-.69,0-.82-.18-1.52-.54-2.08-.36-.57-.88-1-1.55-1.29ZM290.54,58.16c.05-.22.13-.42.24-.6.22-.36.54-.63.96-.81s.94-.26,1.57-.26c.55,0,1,.07,1.37.22.36.15.64.34.82.59.18.25.27.54.28.86h-5.23Z"/>
      <path class="cls-2" d="M307.05,56.29c-.16-.18-.35-.35-.57-.49-.39-.26-.83-.45-1.32-.59-.49-.13-1-.2-1.53-.2-.8,0-1.55.14-2.26.42-.71.28-1.29.72-1.74,1.3s-.67,1.31-.67,2.16.21,1.57.63,2.16c.42.59.98,1.04,1.67,1.34.69.3,1.47.44,2.32.44.58,0,1.12-.07,1.62-.22.51-.15.95-.35,1.32-.62.27-.19.47-.41.65-.65l.1,1.32h1.8v-10.74h-2.03v4.36ZM306.79,60.17c-.23.35-.58.63-1.05.83-.47.21-1.04.31-1.71.31-.62,0-1.16-.1-1.61-.29-.45-.19-.79-.47-1.02-.83-.23-.36-.35-.78-.35-1.27s.12-.94.36-1.29c.24-.35.59-.62,1.03-.81.45-.19.98-.28,1.58-.28.66,0,1.23.1,1.7.3.47.2.82.47,1.06.81.24.34.35.74.35,1.18v.15c0,.44-.12.84-.35,1.19Z"/>
      <path class="cls-2" d="M325.56,58.57l-.23.64c-.17.49-.32.93-.45,1.32-.04.11-.07.24-.11.35-.08-.23-.17-.45-.26-.71-.26-.68-.5-1.29-.73-1.84l-1.29-3.15h-1.93l-1.22,3.08c-.15.39-.31.78-.47,1.17-.22.53-.4,1-.55,1.4-.07-.25-.14-.48-.22-.74-.18-.57-.37-1.11-.55-1.6l-1.23-3.32h-2.09l2.91,7.49h2.16l1.38-3.35c.12-.32.31-.83.55-1.53.11-.28.2-.51.29-.75.04.13.07.23.12.36.27.73.52,1.39.75,1.96l1.33,3.31h2.2l2.92-7.49h-2.07l-1.2,3.39Z"/>
      <path class="cls-2" d="M331.02,51.93c-.33,0-.61.11-.84.34-.23.23-.34.51-.34.85s.11.62.34.84c.23.22.51.33.84.33s.63-.11.87-.33c.24-.22.35-.5.35-.84s-.12-.62-.35-.85c-.24-.23-.53-.34-.87-.34Z"/>
      <rect class="cls-2" x="330.06" y="55.18" width="2.03" height="7.49"/>
      <path class="cls-2" d="M339.51,61.08c-.32.05-.62.08-.92.08-.54,0-.97-.11-1.3-.33-.33-.22-.49-.58-.49-1.07v-3.14h3.55v-1.44h-3.55v-2.02h-1.99v2.02h-1.56v1.44h1.56v3.42c0,.97.33,1.68,1,2.13.67.45,1.48.67,2.45.67.43,0,.85-.04,1.28-.11.42-.07.82-.18,1.19-.32l-.34-1.57c-.27.1-.57.18-.89.23Z"/>
      <path class="cls-2" d="M351.03,56.54c-.36-.51-.85-.89-1.47-1.15-.62-.25-1.31-.38-2.08-.38s-1.53.14-2.17.42c-.62.27-1.1.66-1.43,1.15v-.19s0-4.46,0-4.46h-1.96v5.05h.01v5.7h2.03v-4.07c.02-.37.14-.71.38-1.01.26-.32.63-.57,1.08-.76.46-.18.97-.28,1.54-.28.78,0,1.41.19,1.87.58.46.39.7.96.7,1.71v3.82h2.03v-4.24c0-.75-.18-1.38-.54-1.89Z"/>
    </g>
  </g>
  <g>
    <g>
      <path class="cls-2" d="M208.38,16.92c-2.25-.77-5.27-1.4-9.08-1.87-2.93-.35-5.15-.69-6.65-1.04-1.5-.35-2.54-.77-3.14-1.28-.59-.5-.89-1.18-.89-2.04s.36-1.59,1.08-2.23c.72-.63,1.82-1.13,3.32-1.49,1.5-.36,3.39-.54,5.66-.54,2.49,0,4.84.22,7.04.66,2.2.44,4.39,1.11,6.58,1.99l1.83-5.4c-2.09-.98-4.41-1.69-6.95-2.15-2.54-.46-5.25-.69-8.12-.69-3.03,0-5.84.35-8.45,1.06-2.61.71-4.72,1.83-6.34,3.36-1.62,1.53-2.43,3.5-2.43,5.89,0,2.12.56,3.81,1.69,5.09,1.12,1.28,2.82,2.28,5.1,3.01,2.28.73,5.35,1.31,9.22,1.75,2.78.29,4.91.63,6.39,1.04,1.48.41,2.51.91,3.09,1.49.58.58.86,1.35.86,2.3,0,1.01-.39,1.89-1.17,2.63-.78.74-1.91,1.32-3.37,1.73-1.47.41-3.22.61-5.24.61-2.56,0-5.08-.25-7.58-.76-2.5-.5-5.07-1.31-7.72-2.41l-2.01,5.3c2.78,1.26,5.54,2.18,8.28,2.75,2.75.57,5.74.85,8.99.85s6.02-.41,8.52-1.23c2.5-.82,4.47-2.07,5.92-3.76,1.45-1.69,2.18-3.79,2.18-6.32,0-2.11-.54-3.83-1.61-5.16-1.08-1.33-2.74-2.37-4.98-3.15Z"/>
      <path class="cls-2" d="M242.19,11.79c-2.21-.98-4.84-1.47-7.86-1.47-3.25,0-6.09.54-8.52,1.63-2.43,1.09-4.31,2.62-5.62,4.59-1.31,1.97-1.97,4.27-1.97,6.89,0,2.84.66,5.24,1.99,7.2,1.33,1.96,3.27,3.43,5.83,4.42,2.56.99,5.68,1.49,9.36,1.49,2.4,0,4.72-.2,6.95-.59,2.23-.39,4.3-.97,6.2-1.73l-1.45-4.64c-1.97.57-3.85,1-5.66,1.3-1.81.3-3.67.45-5.57.45-2.56,0-4.64-.26-6.25-.78-1.61-.52-2.82-1.36-3.63-2.51-.51-.72-.84-1.61-1.03-2.63h23.87c.15-.73.23-1.5.23-2.32,0-2.75-.59-5.07-1.78-6.98-1.19-1.91-2.89-3.35-5.1-4.33ZM225.06,20.87c.18-.74.44-1.42.8-2.01.72-1.21,1.77-2.11,3.16-2.7,1.39-.58,3.11-.88,5.17-.88,1.81,0,3.31.25,4.52.73,1.2.49,2.1,1.15,2.69,1.99.59.84.9,1.79.94,2.86h-17.27Z"/>
      <path class="cls-2" d="M263.6,12.02c-1.76,1.02-3,2.51-3.75,4.41l-.18-5.55h-6.27v25.09h6.69v-12.16c0-1.77.41-3.22,1.24-4.35.83-1.14,1.89-1.96,3.18-2.46,1.29-.5,2.74-.76,4.33-.76s3.2.22,4.63.66l1.08-5.87c-1.15-.47-2.64-.71-4.45-.71-2.37,0-4.54.57-6.5,1.7Z"/>
      <path class="cls-2" d="M281.25,0c-1.09,0-2.01.38-2.76,1.14-.75.76-1.12,1.71-1.12,2.84s.37,2.08,1.12,2.82c.75.74,1.67,1.11,2.76,1.11s2.08-.37,2.85-1.11c.78-.74,1.17-1.68,1.17-2.82s-.39-2.08-1.17-2.84c-.78-.76-1.73-1.14-2.85-1.14Z"/>
      <rect class="cls-2" x="278.06" y="10.89" width="6.69" height="25.09"/>
      <path class="cls-2" d="M313.27,11.79c-2.21-.98-4.84-1.47-7.86-1.47-3.25,0-6.09.54-8.52,1.63-2.43,1.09-4.31,2.62-5.62,4.59-1.31,1.97-1.97,4.27-1.97,6.89,0,2.84.66,5.24,1.99,7.2,1.33,1.96,3.27,3.43,5.83,4.42,2.56.99,5.68,1.49,9.36,1.49,2.4,0,4.72-.2,6.95-.59,2.23-.39,4.3-.97,6.2-1.73l-1.45-4.64c-1.97.57-3.85,1-5.66,1.3-1.81.3-3.67.45-5.57.45-2.56,0-4.64-.26-6.25-.78-1.61-.52-2.82-1.36-3.63-2.51-.51-.72-.84-1.61-1.03-2.63h23.87c.15-.73.23-1.5.23-2.32,0-2.75-.59-5.07-1.78-6.98-1.19-1.91-2.89-3.35-5.1-4.33ZM296.14,20.87c.18-.74.44-1.42.8-2.01.72-1.21,1.77-2.11,3.16-2.7,1.39-.58,3.11-.88,5.17-.88,1.81,0,3.31.25,4.52.73,1.2.49,2.1,1.15,2.69,1.99.59.84.9,1.79.94,2.86h-17.27Z"/>
      <path class="cls-2" d="M348.75,23.05c-1.92-1.17-5.08-1.94-9.48-2.32-.97-.09-2-.19-3.09-.28-1.59-.16-2.79-.32-3.6-.5-.81-.17-1.43-.39-1.85-.66-.42-.27-.63-.64-.63-1.11,0-.6.3-1.1.89-1.49.59-.39,1.47-.69,2.62-.9,1.15-.21,2.59-.31,4.31-.31,2.06,0,4.06.15,5.99.45,1.93.3,3.68.73,5.24,1.3l1.22-5.06c-1.62-.6-3.51-1.06-5.66-1.37-2.15-.32-4.35-.47-6.6-.47-2.94,0-5.5.3-7.7.9-2.2.6-3.91,1.48-5.13,2.65-1.22,1.17-1.82,2.59-1.82,4.26,0,1.58.44,2.86,1.33,3.86.89,1,2.31,1.77,4.26,2.32,1.95.55,4.58.94,7.89,1.16,2.09.16,3.71.35,4.84.57,1.14.22,1.97.51,2.48.88.52.36.77.84.77,1.44,0,1.04-.68,1.78-2.04,2.22-1.36.44-3.24.66-5.64.66-2,0-4.15-.21-6.46-.61-2.31-.41-4.37-.96-6.18-1.66l-1.45,5.21c1.97.76,4.08,1.34,6.34,1.75,2.26.41,4.66.61,7.18.61,4.24,0,7.78-.67,10.6-2.01,2.82-1.34,4.24-3.43,4.24-6.27,0-2.3-.96-4.04-2.88-5.21Z"/>
    </g>
    <g>
      <polygon class="cls-2" points="42.37 1.42 33.56 1.42 21.59 14.61 9.04 1.42 .05 1.42 16.94 18.27 0 35.97 8.9 35.97 21.18 22.62 33.8 35.97 42.74 35.97 25.81 18.95 42.37 1.42"/>
      <path class="cls-2" d="M110.65,2.98c-2.92-1.42-6.27-2.13-10.06-2.13s-7.19.71-10.11,2.13c-2.92,1.42-5.19,3.49-6.82,6.2-1.63,2.71-2.44,5.95-2.44,9.7,0,3.47.8,6.54,2.39,9.21,1.59,2.67,3.84,4.74,6.75,6.22,2.9,1.48,6.31,2.23,10.22,2.23s7.27-.74,10.18-2.23c2.9-1.48,5.15-3.56,6.75-6.22,1.59-2.67,2.39-5.74,2.39-9.21,0-3.76-.81-6.99-2.44-9.7-1.63-2.71-3.9-4.78-6.82-6.2ZM111.21,25.63c-1.12,1.78-2.6,3.09-4.45,3.9-1.85.82-3.9,1.23-6.18,1.23s-4.38-.41-6.22-1.23c-1.85-.82-3.33-2.12-4.45-3.9-1.12-1.78-1.68-4.03-1.68-6.75s.56-5.09,1.68-6.93c1.12-1.85,2.61-3.2,4.47-4.07,1.86-.87,3.93-1.3,6.2-1.3s4.29.43,6.15,1.3c1.86.87,3.35,2.22,4.47,4.07,1.12,1.85,1.68,4.16,1.68,6.93s-.56,4.96-1.68,6.75Z"/>
      <path class="cls-2" d="M160.02,9.18c-1.63-2.71-3.9-4.78-6.82-6.2-2.92-1.42-6.27-2.13-10.06-2.13s-7.19.71-10.11,2.13c-2.92,1.42-5.19,3.49-6.82,6.2-1.63,2.71-2.44,5.95-2.44,9.7,0,3.47.8,6.54,2.39,9.21,1.59,2.67,3.84,4.74,6.75,6.22,2.9,1.48,6.31,2.23,10.22,2.23s7.27-.74,10.18-2.23c2.9-1.48,5.15-3.56,6.75-6.22,1.59-2.67,2.39-5.74,2.39-9.21,0-3.76-.81-6.99-2.44-9.7ZM153.77,25.63c-1.12,1.78-2.6,3.09-4.45,3.9-1.85.82-3.9,1.23-6.18,1.23s-4.38-.41-6.22-1.23c-1.85-.82-3.33-2.12-4.45-3.9-1.12-1.78-1.68-4.03-1.68-6.75s.56-5.09,1.68-6.93c1.12-1.85,2.61-3.2,4.47-4.07,1.86-.87,3.93-1.3,6.2-1.3s4.29.43,6.15,1.3c1.86.87,3.35,2.22,4.47,4.07,1.12,1.85,1.68,4.16,1.68,6.93s-.56,4.96-1.68,6.75Z"/>
      <path class="cls-2" d="M51.8,28.78c0-1.91.32-3.24,4.98-4.68,1.68-.52,5.1-1.42,7.99-2.27,4.42-1.29,7.9-2.79,9.85-4.49,1.95-1.7,2.75-3.98,2.75-6.62,0-6.45-6.61-9.88-16.39-9.88-5.22,0-11.52,1.58-15.93,4.27l2.42,5.33c4.52-2.77,8.99-3.89,13.24-3.89,6.72,0,9.8,1.54,9.8,4.36,0,2.18-1.43,4.12-8.32,5.92-5.79,1.46-8.97,2.37-11.43,3.53-4.16,1.97-5.79,4.82-5.79,8.6v7h32.43v-5.56h-25.61v-1.63Z"/>
    </g>
  </g>
</svg>